<svg width="380" height="380" viewBox="0 0 380 380" fill="none" xmlns="http://www.w3.org/2000/svg">
<rect width="380" height="380" rx="20" fill="#E8EBED"/>
<path d="M291.482 62H184.473C178.95 62 174.473 66.4771 174.473 72V143.433C174.473 148.956 178.95 153.433 184.473 153.433H291.482C297.005 153.433 301.482 148.956 301.482 143.433V72C301.482 66.4772 297.005 62 291.482 62Z" fill="#324977"/>
<path d="M280.712 87.7244C278.905 87.7244 277.436 89.2067 277.436 91.0392C277.436 91.9613 277.809 92.7978 278.413 93.397C274.614 96.7041 270.819 100.015 267.021 103.322C266.732 103.575 266.444 103.824 266.155 104.077C265.594 103.618 264.883 103.345 264.106 103.345C262.299 103.345 260.83 104.828 260.83 106.66C260.83 107.824 261.426 108.847 262.322 109.438C261.492 111.465 260.657 113.492 259.827 115.516C259.473 116.379 259.119 117.243 258.762 118.107C258.523 118.052 258.277 118.017 258.02 118.017C256.812 118.017 255.759 118.683 255.19 119.667C251.522 117.321 247.854 114.975 244.185 112.629C241.467 110.89 238.749 109.15 236.03 107.415C236.18 107.034 236.265 106.621 236.265 106.186C236.265 104.357 234.8 102.871 232.989 102.871C231.178 102.871 229.713 104.353 229.713 106.186C229.713 106.419 229.736 106.645 229.782 106.863C224.638 108.987 219.493 111.111 214.349 113.236C213.845 113.446 213.341 113.652 212.834 113.862C212.33 112.687 211.177 111.866 209.831 111.866C208.024 111.866 206.555 113.348 206.555 115.181C206.555 116.13 206.951 116.986 207.586 117.589C206.82 118.469 206.059 119.344 205.294 120.223C201.649 124.414 198 128.6 194.355 132.79C193.832 132.432 193.202 132.222 192.525 132.222C190.718 132.222 189.249 133.705 189.249 135.537C189.249 137.37 190.714 138.852 192.525 138.852C194.336 138.852 195.801 137.37 195.801 135.537C195.801 134.829 195.582 134.175 195.209 133.638C198.323 130.063 201.437 126.487 204.548 122.908C205.898 121.355 207.251 119.803 208.601 118.251C208.981 118.406 209.396 118.496 209.831 118.496C211.638 118.496 213.107 117.013 213.107 115.181C213.107 115.138 213.103 115.091 213.099 115.049C213.172 115.018 213.249 114.986 213.322 114.955C218.959 112.629 224.596 110.298 230.228 107.971C230.809 108.89 231.824 109.501 232.985 109.501C233.935 109.501 234.788 109.088 235.384 108.434C237.849 110.01 240.314 111.586 242.778 113.166C246.777 115.722 250.776 118.282 254.774 120.838C254.751 121.001 254.732 121.165 254.732 121.332C254.732 123.161 256.197 124.647 258.008 124.647C259.819 124.647 261.284 123.165 261.284 121.332C261.284 120.188 260.711 119.177 259.838 118.581C261.026 115.687 262.214 112.792 263.402 109.897C263.625 109.944 263.856 109.971 264.091 109.971C265.898 109.971 267.367 108.489 267.367 106.656C267.367 106.046 267.201 105.478 266.917 104.987C267.59 104.404 268.259 103.816 268.931 103.233C271.807 100.727 274.683 98.2175 277.563 95.7119C278.182 95.1711 278.805 94.6303 279.424 94.0895C279.816 94.2568 280.247 94.3502 280.697 94.3502C282.504 94.3502 283.973 92.8678 283.973 91.0353C283.973 89.2028 282.508 87.7205 280.697 87.7205L280.712 87.7244Z" fill="#F7F7F7"/>
<path d="M174.473 69.6396C174.473 65.4204 177.893 62 182.112 62H293.842C298.061 62 301.482 65.4204 301.482 69.6396H174.473Z" fill="#919CB6"/>
<path d="M65.3008 127.663C65.3008 122.14 69.7779 117.663 75.3008 117.663H191.35C196.873 117.663 201.35 122.14 201.35 127.663V289.612C201.35 295.135 196.873 299.612 191.35 299.612H75.3008C69.7779 299.612 65.3008 295.135 65.3008 289.612V127.663Z" fill="white"/>
<path d="M132.512 137.392C123.931 137.392 116.25 141.244 111.042 147.333L132.512 166.191L153.982 147.333C148.774 141.246 141.093 137.392 132.512 137.392Z" fill="#DFE5EC"/>
<path d="M162.299 164.329L133.326 168.427V197.226C149.506 197.226 162.599 184.345 162.599 168.427C162.599 167.035 162.493 165.668 162.299 164.329Z" fill="#3B455A"/>
<path d="M109.137 148.991C109.137 148.991 106.432 151.637 104.112 157.301C104.112 157.301 103.895 157.902 103.616 158.866C103.106 160.622 102.343 163.837 102.343 166.568H130.11L109.137 148.991Z" fill="#FF5F5F"/>
<path d="M132.154 197.121C116.632 197.121 104.523 185.631 103.506 168.324H132.157L132.154 197.121Z" fill="#679AFE"/>
<path d="M162.358 164.718C161.571 159.114 158.508 153.068 155.02 148.991L133.756 168.322L162.358 164.718Z" fill="#3B455A"/>
<path d="M166.884 245.993H153.761V276.589H166.884V245.993Z" fill="#548DFE"/>
<path d="M166.969 220.17H153.761V248.522H166.969V220.17Z" fill="#E5EDF4"/>
<path d="M138.086 243.578H124.963V275.898H138.086V243.578Z" fill="#548DFE"/>
<path d="M138.086 240.702H124.963V262.154H138.086V240.702Z" fill="#E5EDF4"/>
<path d="M109.289 232.318H96.166V275.722H109.289V232.318Z" fill="#548DFE"/>
<path d="M109.535 215.513H96.166V243.506H109.535V215.513Z" fill="#E5EDF4"/>
<path d="M258.935 239.41L250.445 252.97L202.273 222.71L210.763 209.151L258.935 239.41Z" fill="#F7F7F7"/>
<path d="M268.421 255.413L268.322 255.57C265.643 259.848 260.864 261.691 257.649 259.688L220.674 237.058L230.391 220.764L267.445 244.045C270.663 246.048 271.1 251.139 268.421 255.415V255.413Z" fill="#324977"/>
<path d="M193.596 153.463C172.126 140.059 143.852 146.596 130.448 168.069C117.044 189.539 123.582 217.813 145.054 231.217C166.527 244.622 194.798 238.084 208.203 216.611C221.607 195.138 215.069 166.867 193.596 153.463ZM202.77 213.219C191.24 231.691 166.916 237.316 148.446 225.785C129.975 214.255 124.349 189.933 135.88 171.461C147.413 152.989 171.735 147.364 190.206 158.895C208.678 170.426 214.303 194.75 202.773 213.219H202.77Z" fill="#324977"/>
<path opacity="0.6" d="M197.519 220.316C213.002 204.877 213.002 179.846 197.519 164.407C182.036 148.969 156.933 148.969 141.45 164.407C125.967 179.846 125.967 204.877 141.45 220.316C156.933 235.754 182.036 235.754 197.519 220.316Z" fill="white"/>
<path opacity="0.31" d="M200.585 184.073C202.291 185.133 202.809 187.373 201.746 189.074C200.682 190.775 198.436 191.292 196.73 190.232C195.024 189.171 194.505 186.931 195.569 185.23C196.633 183.529 198.879 183.012 200.585 184.073Z" fill="white"/>
<path d="M228.842 254.769L222.896 245.421L214.292 237.431C214.292 237.431 212.621 232.615 218.012 232.48C223.403 232.346 227.034 236.841 229.42 240.411C230.471 241.98 235.543 246.548 239.482 249.34C244.635 252.994 239.252 269.088 239.252 269.088C239.252 269.088 229.439 255.661 228.842 254.769Z" fill="#FEC8A9"/>
<path d="M276.02 272.277C276.02 266.741 276.089 264.973 277.003 254C277.034 253.908 277.169 250.779 277.003 250.062C276.342 247.208 271.742 224.952 270.872 224.517C270.114 223.688 269.893 223.406 269.153 223.114C268.472 222.846 267.881 222.637 267.256 222.462C266.098 222.138 264.053 221.753 263.098 221.905C262.296 221.905 260.427 227.427 260.248 227.377C260.102 227.335 260.043 226.172 259.995 224.841L259.244 217.274C259.221 216.642 258.787 216.1 258.173 215.94C255.885 215.348 250.945 214.193 250.729 214.548C250.467 214.808 250.303 220.041 249.972 222.462C249.928 222.789 249.572 222.974 249.277 222.82C249.131 222.745 249.036 222.602 249.022 222.437L248.167 212.681C248.049 211.333 247.082 210.215 245.764 209.899C243.221 209.293 239.372 208.423 239.26 208.686C239.064 209.15 237.163 219.552 237.163 219.552C237.163 219.552 233.857 244.374 233.482 246.14C232.932 248.723 231.2 251.041 231.449 253.618C231.727 256.495 232.991 259.167 234.239 261.787C237.241 268.091 240.247 274.395 243.249 280.699C243.269 280.741 243.283 280.785 243.292 280.833C243.922 285.009 244.587 294.24 245.518 298.657C245.571 298.914 245.823 299.076 246.081 299.026C257.077 296.829 268.137 295.123 280.372 291.24C280.722 291.129 275.277 274.225 276.02 272.282C276.02 272.282 276.02 277.813 276.02 272.277Z" fill="#FFD2B9"/>
<path d="M242.508 315.609L239.935 293.046L284.5 276.589L292.249 304.097L242.66 318.86L242.508 315.609Z" fill="#F7F7F7"/>
<path d="M293.962 289.912C293.962 289.912 248.959 307.424 238.455 311.721L236.026 380.001H313.966L293.962 289.912Z" fill="#72A1FF"/>
</svg>
