<svg width="380" height="380" viewBox="0 0 380 380" fill="none" xmlns="http://www.w3.org/2000/svg">
<rect width="380" height="380" rx="20" fill="#E8EBED"/>
<path d="M67.8523 297.18L89.9197 295.183C89.9197 295.183 114.429 304.196 128.275 300.252L142.122 296.309L168.618 285.13C168.618 285.13 178.133 279.828 169.046 274.138C169.046 274.138 180.443 268.628 170.808 264.073C170.808 264.073 178.412 255.435 169.034 255.251C169.034 255.251 172.601 247.131 159.599 251.665C156.167 252.862 152.437 253.402 148.047 255.313C144.856 256.701 137.494 255.456 133.488 256.149C120.512 258.393 110.817 247.556 110.817 247.556L79.1295 265.166L66.1406 275.219L67.8531 297.18H67.8523Z" fill="#FFC29F"/>
<mask id="mask0_1060_1475" style="mask-type:alpha" maskUnits="userSpaceOnUse" x="66" y="247" width="109" height="55">
<path d="M67.8523 297.18L89.9197 295.183C89.9197 295.183 114.429 304.196 128.275 300.252L142.122 296.309L168.618 285.13C168.618 285.13 178.133 279.828 169.046 274.138C169.046 274.138 180.443 268.628 170.808 264.073C170.808 264.073 178.412 255.435 169.034 255.251C169.034 255.251 172.601 247.131 159.599 251.665C156.167 252.862 152.437 253.402 148.047 255.313C144.856 256.701 137.494 255.456 133.488 256.149C120.512 258.393 110.817 247.556 110.817 247.556L79.1295 265.166L66.1406 275.219L67.8531 297.18H67.8523Z" fill="#FFC29F"/>
</mask>
<g mask="url(#mask0_1060_1475)">
<path opacity="0.3" d="M173.907 279.193L117.908 279.905C108.609 280.023 105.728 267.387 105.449 261.055L192.48 265.471L183.193 272.332L173.907 279.193Z" fill="#BF7145"/>
</g>
<path d="M64.6543 254.172L75.9848 252.732C75.9848 252.732 85.8643 229.794 109.889 234.569C129.737 238.515 132.478 240.688 132.478 240.688L144.512 240.538C144.512 240.538 150.736 253.006 131.23 253.626C131.23 253.626 128.166 253.875 123.664 252.354L115.304 250.519C115.304 250.519 109.448 269.754 97.1248 273.176L84.802 276.597L66.5574 281.104L64.6543 254.171V254.172Z" fill="#FFCFB4"/>
<path d="M167.608 255.963C167.336 256.038 167.067 256.12 166.798 256.201C166.528 256.282 166.26 256.368 165.993 256.455L165.191 256.72C164.924 256.808 164.659 256.904 164.393 256.997L163.598 257.285C163.334 257.382 163.069 257.479 162.807 257.581L162.021 257.893C161.759 257.998 161.499 258.106 161.237 258.214C160.977 258.324 160.717 258.434 160.458 258.548C160.199 258.662 159.944 258.783 159.686 258.903C159.431 259.025 159.174 259.147 158.92 259.274C158.666 259.399 158.413 259.532 158.161 259.666L157.785 259.87L157.412 260.085C157.166 260.233 156.92 260.384 156.679 260.548C156.558 260.626 156.439 260.713 156.32 260.799C156.2 260.882 156.083 260.975 155.967 261.068C155.734 261.253 155.51 261.465 155.296 261.699L155.559 261.541C155.045 261.649 154.541 261.76 154.034 261.881L153.277 262.064L152.521 262.253L151.768 262.451L151.016 262.659C150.765 262.727 150.516 262.803 150.266 262.875C150.016 262.947 149.767 263.023 149.519 263.102C149.271 263.181 149.022 263.257 148.774 263.339L148.032 263.588C147.785 263.67 147.54 263.767 147.294 263.855L146.926 263.99L146.561 264.138L146.195 264.285L146.012 264.358L145.832 264.44C145.591 264.551 145.35 264.656 145.11 264.771L144.398 265.14C144.164 265.278 143.934 265.426 143.703 265.569L143.944 265.492C143.68 265.506 143.431 265.526 143.175 265.546C142.921 265.569 142.667 265.591 142.414 265.62C141.908 265.676 141.404 265.742 140.901 265.817C140.398 265.892 139.896 265.976 139.396 266.07C139.146 266.12 138.897 266.172 138.649 266.227C138.401 266.282 138.153 266.34 137.905 266.401C137.658 266.462 137.412 266.527 137.167 266.595C136.921 266.664 136.677 266.732 136.434 266.813C136.191 266.889 135.951 266.973 135.711 267.058C135.59 267.1 135.472 267.147 135.353 267.192C135.234 267.236 135.115 267.283 134.997 267.333C134.76 267.426 134.529 267.535 134.298 267.642C134.07 267.756 133.841 267.867 133.62 267.994C133.509 268.055 133.398 268.116 133.291 268.186C133.183 268.255 133.073 268.318 132.971 268.393C132.868 268.466 132.761 268.535 132.66 268.613L132.363 268.848L132.69 268.658C132.799 268.595 132.912 268.54 133.023 268.481C133.133 268.42 133.249 268.373 133.362 268.32L133.532 268.24L133.705 268.168C133.934 268.068 134.17 267.984 134.404 267.897C134.641 267.818 134.877 267.738 135.116 267.667C135.235 267.629 135.355 267.594 135.475 267.561C135.596 267.529 135.715 267.492 135.836 267.463C136.077 267.401 136.319 267.341 136.563 267.288C136.685 267.259 136.807 267.235 136.929 267.209C137.051 267.183 137.172 267.155 137.295 267.132C137.54 267.083 137.785 267.037 138.03 266.995C138.276 266.952 138.522 266.913 138.769 266.876C139.015 266.839 139.262 266.806 139.51 266.774C140.005 266.707 140.5 266.65 140.997 266.601C141.493 266.553 141.991 266.514 142.489 266.485L143.235 266.442C143.482 266.431 143.735 266.421 143.974 266.416L144.084 266.415L144.216 266.34L144.852 265.976L145.524 265.649C145.754 265.547 145.988 265.452 146.22 265.352C146.335 265.302 146.453 265.255 146.572 265.211L146.927 265.074L147.283 264.938L147.643 264.811C147.885 264.728 148.123 264.64 148.366 264.562L149.093 264.321C149.337 264.242 149.582 264.169 149.826 264.093C150.07 264.015 150.316 263.944 150.562 263.872C150.808 263.801 151.052 263.724 151.3 263.656L152.041 263.447L152.784 263.245L153.528 263.046L154.274 262.853L155.021 262.665L155.766 262.484L155.924 262.446L156.029 262.327C156.191 262.144 156.37 261.962 156.572 261.793C156.672 261.707 156.771 261.62 156.879 261.54C156.985 261.457 157.09 261.374 157.201 261.296C157.419 261.137 157.648 260.985 157.876 260.835L158.224 260.613L158.577 260.397C158.814 260.256 159.052 260.114 159.294 259.979C159.536 259.842 159.78 259.71 160.024 259.577C160.271 259.447 160.516 259.316 160.765 259.19C161.012 259.06 161.261 258.934 161.51 258.807C161.759 258.682 162.009 258.557 162.261 258.434L163.016 258.07L163.775 257.709L164.537 257.354L166.068 256.654L167.607 255.964L167.608 255.963Z" fill="#C1A691"/>
<path fill-rule="evenodd" clip-rule="evenodd" d="M67.1699 245.483C70.8463 245.539 73.7909 245.726 73.7476 248.546H73.7484L73.3852 274.399L73.3855 274.399L73.0034 301.468C72.9601 304.288 69.9456 304.273 66.2692 304.217L55.0461 304.044C51.3697 303.988 48.4709 301.731 48.5142 298.911L48.8947 274.125L48.8945 274.125L49.2592 250.351C49.3025 247.532 52.2704 245.254 55.9468 245.311L67.1699 245.483Z" fill="white"/>
<path fill-rule="evenodd" clip-rule="evenodd" d="M60.3462 245.563C60.3352 245.9 60.3237 246.249 60.3195 246.607H60.3189L59.9933 274.357L59.9922 274.357L59.6677 302.009L59.6671 302.008C59.6346 304.828 59.4135 307.038 56.5999 306.981L0.0644531 306.759V274.134V274.03V241.289L58.0226 241.479C60.4789 241.529 60.4223 243.251 60.3462 245.563Z" fill="#679AFE"/>
<path d="M261.846 163.216H115.449C109.926 163.216 105.449 167.693 105.449 173.216V264.148C105.449 269.671 109.926 274.148 115.449 274.148H261.846C267.369 274.148 271.846 269.671 271.846 264.148V173.216C271.846 167.693 267.369 163.216 261.846 163.216Z" fill="#F4F6F8"/>
<path d="M272.584 141.221H104.711C101.95 141.221 99.7109 143.46 99.7109 146.221V167.78C99.7109 170.541 101.95 172.78 104.711 172.78H272.584C275.345 172.78 277.584 170.541 277.584 167.78V146.221C277.584 143.46 275.345 141.221 272.584 141.221Z" fill="#D6DAE1"/>
<path d="M197.075 141.651H179.861V274.578H197.075V141.651Z" fill="#FF5F5F"/>
<path d="M102.58 141.221L135.88 109.663H238.881L274.715 141.211L102.58 141.221Z" fill="#FAFAFA"/>
<path opacity="0.9" d="M193.125 109.663H183.202L179.818 141.221H197.476L193.125 109.663Z" fill="url(#paint0_linear_1060_1475)"/>
<path opacity="0.9" d="M254.042 123.052H121.871L117.881 126.877H258.458L254.042 123.052Z" fill="url(#paint1_linear_1060_1475)"/>
<path d="M187.691 118.261C187.691 118.261 170.651 92.6629 148.331 99.2803C148.331 99.2803 141.034 105.549 144.039 109.728C144.039 109.728 133.738 117.042 139.961 122.266C139.961 122.266 172.369 116.694 185.03 124.008L187.691 118.261Z" fill="#FF5F5F"/>
<path d="M190.561 119.218C190.561 119.218 207.927 93.6194 230.677 100.237C230.677 100.237 238.114 106.505 235.052 110.685C235.052 110.685 245.551 117.999 239.208 123.223C239.208 123.223 206.177 117.65 193.272 124.964L190.561 119.218Z" fill="#FF5F5F"/>
<path opacity="0.7" d="M197.075 140.695H179.861V173.209H197.075V140.695Z" fill="#F11B1B"/>
<path d="M193.43 124.776C193.43 124.776 226.223 128.233 239.34 123.13C239.34 123.13 207.64 117.699 193.43 124.776Z" fill="#F11B1B"/>
<path d="M184.346 125.92C184.346 125.92 184.847 119.163 186.571 118.41C186.571 118.41 188.423 117.793 188.629 119.148L189.127 125.92H184.346Z" fill="#F11B1B"/>
<path d="M192.953 125.92C192.953 125.92 192.452 119.163 190.728 118.41C190.728 118.41 188.876 117.793 188.671 119.148L188.172 125.92H192.953H192.953Z" fill="#F11B1B"/>
<path d="M185.869 124.402C185.869 124.402 153.078 128.381 139.963 122.258C139.963 122.258 171.661 115.909 185.869 124.402Z" fill="#F11B1B"/>
<path d="M73.231 209.187L70.6904 202.311L63.1816 199.944L70.6904 197.261L72.8876 190.373L75.4885 197.261L82.937 199.616L75.4885 202.311L73.231 209.187Z" fill="#679AFE"/>
<path d="M284.136 98.8629L280.305 88.314L268.98 84.6825L280.305 80.5663L283.619 70L287.541 80.5663L298.774 84.1804L287.541 88.314L284.136 98.8629Z" fill="#679AFE"/>
<defs>
<linearGradient id="paint0_linear_1060_1475" x1="188.712" y1="141.256" x2="187.462" y2="87.6489" gradientUnits="userSpaceOnUse">
<stop stop-color="#F11B1B"/>
<stop offset="1" stop-color="#D8BAB1" stop-opacity="0.3"/>
</linearGradient>
<linearGradient id="paint1_linear_1060_1475" x1="187.841" y1="126.512" x2="187.841" y2="118.222" gradientUnits="userSpaceOnUse">
<stop stop-color="#F11B1B"/>
<stop offset="1" stop-color="#E9C9C7"/>
</linearGradient>
</defs>
</svg>
