<svg width="380" height="380" viewBox="0 0 380 380" fill="none" xmlns="http://www.w3.org/2000/svg">
<rect width="380" height="380" rx="20" fill="#98C0FF"/>
<rect x="41.5488" y="191.458" width="89.3864" height="56.7075" rx="4" fill="#324977"/>
<path opacity="0.2" d="M41.5498 202.404L127.054 202.031L127.087 209.72L41.5833 210.093L41.5498 202.404Z" fill="#98C0FF"/>
<circle opacity="0.7" cx="53.5634" cy="237.113" r="4.32515" fill="white"/>
<circle opacity="0.3" cx="60.2919" cy="237.113" r="4.32515" fill="white"/>
<path d="M260.69 153.311L225.128 108.8L176.109 149.168V277H260.69V153.311Z" fill="white"/>
<rect x="114.596" y="149.168" width="61.5132" height="127.832" fill="#DAE8FE"/>
<path d="M166.695 108.8L114.596 149.168H176.109L225.127 108.8H166.695Z" fill="#548DFE"/>
<rect x="136.702" y="189.491" width="11.5991" height="11.9562" rx="3" fill="#324977"/>
<path d="M136.702 211.675C136.702 210.57 137.598 209.675 138.702 209.675H146.236C147.34 209.675 148.236 210.57 148.236 211.675V276.955H136.702V211.675Z" fill="#324977"/>
<path d="M300.096 205.614L274.007 179.924L246.271 205.614V277H300.096V205.614Z" fill="white"/>
<path d="M207.826 205.875H246.272V277H207.826V205.875Z" fill="#DAE8FE"/>
<path d="M240.506 179.924L207.826 205.875H246.06L274.145 179.924H240.506Z" fill="#548DFE"/>
<rect x="222.243" y="226.059" width="9.44086" height="9.73146" rx="3" fill="#324977"/>
<rect x="222.243" y="243.71" width="9.44086" height="9.73146" rx="3" fill="#324977"/>
<path fill-rule="evenodd" clip-rule="evenodd" d="M289.105 203.488L287.928 204.17L289 206.021C289.058 206.189 289.132 206.35 289.223 206.503C290.948 209.414 297.964 208.444 304.894 204.338C311.531 200.404 315.682 195.019 314.504 192.014L314.517 192.006L314.461 191.909C314.419 191.814 314.371 191.721 314.318 191.631C314.273 191.556 314.226 191.484 314.175 191.415L313.116 189.586L312.117 190.164C309.091 189.401 303.845 190.716 298.647 193.796C293.665 196.749 290.083 200.52 289.105 203.488Z" fill="#FFD541"/>
<ellipse cx="300.389" cy="196.476" rx="14.5852" ry="6.1266" transform="rotate(-30.6532 300.389 196.476)" fill="#FFE793"/>
<ellipse cx="80.8308" cy="140.663" rx="10.2266" ry="14.717" transform="rotate(7.61088 80.8308 140.663)" fill="#FFD541"/>
<ellipse cx="78.6562" cy="139.796" rx="10.0094" ry="14.1454" transform="rotate(7.61088 78.6562 139.796)" fill="#FFE793"/>
<path fill-rule="evenodd" clip-rule="evenodd" d="M96.2214 117.013L96.851 117.884L95.4863 118.872C95.388 118.978 95.2799 119.073 95.1619 119.157C92.9723 120.708 88.2068 117.735 84.5178 112.517C80.9854 107.521 79.7209 102.277 81.5424 100.479L81.5343 100.468L81.6229 100.404C81.6801 100.353 81.7401 100.305 81.8029 100.26C81.8541 100.224 81.9067 100.19 81.9606 100.159L83.3311 99.167L83.8671 99.909C86.3043 100.333 89.6787 102.984 92.4469 106.9C95.1004 110.653 96.4741 114.546 96.2214 117.013Z" fill="#EEC946"/>
<ellipse cx="11.5667" cy="4.8603" rx="11.5667" ry="4.8603" transform="matrix(-0.577476 -0.816826 -0.815698 0.577887 100.967 114.917)" fill="#FFE793"/>
</svg>
