<svg width="380" height="380" viewBox="0 0 380 380" fill="none" xmlns="http://www.w3.org/2000/svg">
<rect width="380" height="380" rx="20" fill="#98C0FF"/>
<ellipse cx="305.17" cy="191.067" rx="32" ry="32.9275" fill="#548DFE"/>
<path d="M305.53 178.608L305.169 178.049L304.807 178.608C304.486 179.087 296.734 190.389 296.734 195.141C296.734 199.893 300.51 204.086 305.169 204.086C309.828 204.086 313.604 200.093 313.604 195.141C313.604 190.189 305.852 179.087 305.53 178.608Z" fill="white"/>
<path d="M124.223 238.457V298.184H197.806V238.457L161.908 198.012L124.223 238.457Z" fill="#DAE8FE"/>
<rect x="195.982" y="237.912" width="59.7981" height="60.2716" fill="white"/>
<path d="M161.85 198.026L195.708 237.911H255.765L219 198.026H161.85Z" fill="#548DFE"/>
<path d="M151.76 264.932C151.76 263.827 152.655 262.932 153.76 262.932H160.848C161.952 262.932 162.848 263.827 162.848 264.932V298.183H151.76V264.932Z" fill="#223565"/>
<rect x="151.76" y="237.02" width="11.0879" height="11.659" rx="2" fill="#223565"/>
<circle cx="74.8301" cy="191.067" r="32" fill="#FF5F5F"/>
<path d="M72.4748 184.413C72.4748 184.413 73.3467 185.423 73.7598 186.295L73.8037 186.431C73.9574 186.77 73.8974 186.891 73.8974 187.121C73.9892 188.222 73.5762 189.599 72.2453 191.251C72.2453 191.251 72.3371 191.251 72.4289 191.159C72.8878 190.93 73.9892 190.195 74.9989 189.232C74.9989 189.232 75.0447 189.186 75.1824 189.094C75.2742 189.002 75.366 188.91 75.4578 188.819C75.7331 188.497 76.1462 188.038 76.5133 187.442C76.6051 187.304 76.651 187.166 76.7886 186.937C76.8345 186.799 76.9263 186.616 76.9263 186.524V186.386C77.1099 185.606 76.9263 184.551 75.8249 183.266C73.4844 180.558 75.9167 176.152 75.9167 176.152C75.9167 176.152 75.8249 176.152 75.7331 176.244C74.7694 176.749 70.685 179.089 71.0062 182.164C71.0062 182.164 71.098 182.99 71.8323 183.816C71.97 184 72.1994 184.229 72.4748 184.413Z" fill="white"/>
<path d="M65.7236 187.03C65.7236 187.03 66.412 187.81 66.7332 188.544L66.8026 188.692C66.8026 188.692 66.8709 189.003 66.8709 189.187C66.9168 190.105 66.6414 191.206 65.5859 192.537L65.7695 192.445C66.1366 192.262 67.0085 191.665 67.7887 190.885L67.9264 190.747C67.9264 190.747 68.0641 190.61 68.1559 190.518C68.3853 190.242 68.7066 189.875 68.9819 189.416C69.0737 189.325 69.1196 189.187 69.1655 189.003C69.2114 188.866 69.2573 188.728 69.3032 188.636V188.499C69.4408 187.856 69.3032 187.03 68.4312 185.974C66.5955 183.772 68.523 180.192 68.523 180.192L68.3394 180.284C67.5593 180.697 64.3468 182.624 64.6222 185.103C64.6222 185.103 64.7139 185.745 65.2646 186.433C65.4023 186.571 65.5172 186.776 65.7008 186.959" fill="white"/>
<path d="M80.3652 187.028C80.3652 187.028 81.0536 187.809 81.3749 188.543V188.635C81.3749 188.635 81.5125 189.002 81.5125 189.185C81.5584 190.103 81.2831 191.205 80.2276 192.535L80.4111 192.444C80.7783 192.26 81.6502 191.663 82.4304 190.883L82.5681 190.746C82.5681 190.746 82.7057 190.608 82.7975 190.516C83.027 190.241 83.3482 189.874 83.6236 189.415C83.7154 189.323 83.7612 189.185 83.8071 189.002C83.853 188.864 83.8989 188.726 83.9448 188.635V188.497C84.0825 187.854 83.9448 187.028 83.0729 185.973C81.2372 183.77 83.1647 180.19 83.1647 180.19L82.9811 180.282C82.2009 180.695 79.0344 182.623 79.2638 185.101C79.2638 185.101 79.3556 185.743 79.9063 186.432C80.044 186.569 80.1478 186.74 80.3314 186.923" fill="white"/>
<path d="M85.805 186.809C86.1674 187.714 86.3486 188.666 86.3486 189.617C87.0984 194.964 80.6202 198.818 73.9614 198.818C67.3027 198.818 61.4804 195.075 62.1143 189.617C62.1143 188.62 62.2955 187.669 62.6579 186.809C60.6195 188.53 59.3965 190.704 59.3965 193.06C59.3965 198.586 66.0552 203.07 74.2541 203.07C82.453 203.07 89.1117 198.586 89.1117 193.06C89.1117 190.704 87.8887 188.53 85.8503 186.809H85.805Z" fill="white"/>
<circle cx="236.127" cy="120.737" r="32" fill="#FFD541"/>
<path d="M238.492 102.861L235.263 116.454L248.542 116.978L232.035 138.614L234.763 126.201L223.713 124.759L238.492 102.861Z" fill="white"/>
<circle cx="142.287" cy="120.738" r="32" fill="#FF8642"/>
<path d="M141.921 136.243C141.921 136.243 125.613 135.981 133.964 117.574C133.964 117.574 133.483 123.783 136.762 123.564C136.762 123.564 131.078 111.934 146.555 104.633C146.555 104.633 142.402 112.153 146.206 117.968C146.206 117.968 145.462 113.333 147.911 110.666C147.911 110.666 148.479 114.951 150.184 117.399C151.977 120.066 152.982 123.127 152.982 127.149C152.982 127.149 153.682 137.38 141.921 136.243Z" fill="white"/>
<path d="M142.156 136.809C142.156 136.809 136.114 136.712 139.2 129.89C139.2 129.89 139.135 131.189 140.37 131.125C140.37 131.125 137.706 126.869 143.456 124.173C143.456 124.173 142.059 126.544 143.456 128.688C143.456 128.688 143.456 128.298 144.365 127.324C144.365 127.324 144.592 128.916 145.21 129.825C145.892 130.8 146.249 131.969 146.249 133.431C146.249 133.431 146.509 137.232 142.124 136.809H142.156Z" fill="#FF8642"/>
</svg>
