<svg width="378" height="380" viewBox="0 0 378 380" fill="none" xmlns="http://www.w3.org/2000/svg">
<rect width="378" height="380" rx="20" fill="#EAECED"/>
<ellipse cx="93.1774" cy="94.5475" rx="10.464" ry="15.0587" transform="rotate(-3.24829 93.1774 94.5475)" fill="#FFB800"/>
<ellipse cx="90.6262" cy="94.1071" rx="10.0429" ry="14.4739" transform="rotate(-3.24829 90.6262 94.1071)" fill="#FFCE1F"/>
<path fill-rule="evenodd" clip-rule="evenodd" d="M108.914 70.5464L109.558 71.4384L108.161 72.4494C108.061 72.5575 107.95 72.6547 107.83 72.7401C105.589 74.3274 100.713 71.2858 96.9384 65.9467C93.3239 60.8341 92.0301 55.4686 93.8939 53.6288L93.8856 53.6174L93.9758 53.5521C94.0344 53.4999 94.096 53.451 94.1604 53.4054C94.2129 53.3682 94.2669 53.3335 94.3223 53.3013L95.7242 52.2865L96.2726 53.0458C98.7664 53.4798 102.219 56.1924 105.052 60.1988C107.767 64.0392 109.172 68.0222 108.914 70.5464Z" fill="#FFB800"/>
<ellipse cx="11.8353" cy="4.97314" rx="11.8353" ry="4.97314" transform="matrix(-0.577476 -0.816826 -0.815698 0.577887 113.773 68.4027)" fill="#FFCE1F"/>
<path fill-rule="evenodd" clip-rule="evenodd" d="M123.709 107.983V108.81V127.01H124.01V273.36H158.431L158.431 286.037L158.431 286.057V286.529H158.435C158.596 294.828 162.825 302.76 170.241 308.638C177.802 314.632 188.058 318 198.752 318C209.446 318 219.702 314.632 227.264 308.638C234.68 302.76 238.909 294.828 239.069 286.529H239.074V286.05V286.037V273.36H239.074V127.132H271.201C272.748 127.132 274.001 125.878 274.001 124.332V81.8293C274.001 80.2827 272.748 79.0289 271.201 79.0289H163.914C163.755 79.0289 163.599 79.0422 163.447 79.0676C162.805 79.0418 162.161 79.0287 161.515 79.0287C151.488 79.0287 141.872 82.1664 134.782 87.7515C127.94 93.1412 123.991 100.384 123.724 107.983H123.709Z" fill="white"/>
<path fill-rule="evenodd" clip-rule="evenodd" d="M239.076 112.592V111.66H239.089C239.322 103.094 242.763 94.9285 248.726 88.8525C254.904 82.5563 263.284 79.0191 272.022 79.0191C280.76 79.0191 289.14 82.5563 295.318 88.8525C301.281 94.9285 304.722 103.094 304.955 111.66H304.968V112.592V133.109H239.076V112.592Z" fill="#6BA0FE"/>
<path d="M109.584 318H193.957C167.687 317.265 158.226 294.419 158.074 283.087L109.584 318Z" fill="#6BA0FE"/>
<path fill-rule="evenodd" clip-rule="evenodd" d="M76.9522 309.195C68.0405 303.556 63.0339 295.91 63.0339 287.936C63.0339 287.936 63.0339 287.936 63.0339 287.936L63.0339 273.36L158.074 273.36L158.074 287.936C158.074 295.91 153.068 303.556 144.156 309.195C135.244 314.833 123.157 318 110.554 318C97.9509 318 85.864 314.833 76.9522 309.195Z" fill="#6BA0FE"/>
<g opacity="0.8">
<rect x="140.729" y="187.027" width="32.4541" height="2.75368" rx="1.37684" fill="#1F2A5B"/>
<rect x="140.463" y="227.634" width="25.204" height="2.75368" rx="1.37684" fill="#1F2A5B"/>
<rect x="140.463" y="177.193" width="53.2084" height="2.75368" rx="1.37684" fill="#1F2A5B"/>
<rect x="140.729" y="217.515" width="35.6043" height="2.75368" rx="1.37684" fill="#1F2A5B"/>
<rect x="140.463" y="197.433" width="40.6318" height="2.75368" rx="1.37684" fill="#1F2A5B"/>
<rect x="205.906" y="177.34" width="10.2683" height="2.45865" rx="1.22932" fill="#B5BFC7"/>
<rect x="205.906" y="187.175" width="10.2683" height="2.45865" rx="1.22932" fill="#B5BFC7"/>
<rect x="209.639" y="197.58" width="6.53436" height="2.45865" rx="1.22932" fill="#B5BFC7"/>
<rect x="209.639" y="217.662" width="6.53436" height="2.45865" rx="1.22932" fill="#B5BFC7"/>
</g>
<path d="M164.947 116.262V129.474H161.826V119.182H161.753L158.779 121.007V118.306L162.045 116.262H164.947ZM173.249 129.656C169.819 129.656 167.72 127.202 167.72 122.868C167.72 118.534 169.819 116.08 173.249 116.08C176.68 116.08 178.788 118.552 178.778 122.868C178.788 127.211 176.68 129.656 173.249 129.656ZM170.914 122.868C170.904 125.797 171.844 127.12 173.249 127.12C174.654 127.12 175.594 125.797 175.585 122.868C175.585 119.985 174.654 118.607 173.249 118.598C171.853 118.607 170.923 119.985 170.914 122.868ZM186.625 116.262V129.474H183.505V119.182H183.432L180.457 121.007V118.306L183.724 116.262H186.625ZM204.307 122.266V124.328H188.997V122.266H195.366V121.007H190.822V115.204H202.501V117.248H193.45V118.945H202.573V121.007H197.957V122.266H204.307ZM190.712 128.16C190.712 126.153 192.93 125.039 196.606 125.039C200.247 125.039 202.446 126.153 202.446 128.16C202.446 130.121 200.247 131.253 196.606 131.262C192.93 131.253 190.712 130.121 190.712 128.16ZM193.395 128.16C193.377 128.935 194.408 129.264 196.606 129.255C198.751 129.264 199.809 128.935 199.818 128.16C199.809 127.393 198.751 127.028 196.606 127.028C194.408 127.028 193.377 127.393 193.395 128.16ZM164.947 139.262V152.474H161.826V142.182H161.753L158.779 144.007V141.306L162.045 139.262H164.947ZM173.249 152.656C169.819 152.656 167.72 150.202 167.72 145.868C167.72 141.534 169.819 139.08 173.249 139.08C176.68 139.08 178.788 141.552 178.778 145.868C178.788 150.211 176.68 152.656 173.249 152.656ZM170.914 145.868C170.904 148.797 171.844 150.12 173.249 150.12C174.654 150.12 175.594 148.797 175.585 145.868C175.585 142.985 174.654 141.607 173.249 141.598C171.853 141.607 170.923 142.985 170.914 145.868ZM186.625 139.262V152.474H183.505V142.182H183.432L180.457 144.007V141.306L183.724 139.262H186.625ZM203.614 139.481V141.562H189.618V139.481H195.293V137.62H197.92V139.481H203.614ZM188.997 152.601V150.503H195.293V148.706C192.492 148.432 190.804 147.264 190.804 145.448C190.804 143.395 193.03 142.155 196.606 142.164C200.119 142.155 202.382 143.395 202.373 145.448C202.382 147.255 200.676 148.432 197.92 148.706V150.503H204.307V152.601H188.997ZM193.523 145.448C193.513 146.333 194.544 146.689 196.606 146.689C198.614 146.689 199.672 146.333 199.672 145.448C199.672 144.572 198.614 144.207 196.606 144.207C194.544 144.207 193.513 144.572 193.523 145.448Z" fill="#1F2A5B"/>
<path fill-rule="evenodd" clip-rule="evenodd" d="M229.797 250.565L228.592 251.262L229.687 253.154C229.747 253.327 229.824 253.493 229.917 253.65C231.682 256.629 238.861 255.637 245.952 251.435C252.743 247.409 256.99 241.899 255.785 238.824L255.799 238.816L255.739 238.713C255.696 238.617 255.648 238.524 255.594 238.433C255.55 238.358 255.502 238.285 255.45 238.215L254.365 236.34L253.342 236.932C250.246 236.151 244.878 237.497 239.559 240.649C234.462 243.67 230.798 247.528 229.797 250.565Z" fill="#FFB800"/>
<ellipse cx="241.447" cy="243.567" rx="14.9239" ry="6.0627" transform="rotate(-30.6532 241.447 243.567)" fill="#FFCE1F"/>
</svg>
