<svg width="380" height="380" viewBox="0 0 380 380" fill="none" xmlns="http://www.w3.org/2000/svg">
<rect width="380" height="380" rx="20" fill="#1F2A5B"/>
<path d="M151 272.638L160.717 313.306L160.447 323H225.284V310.197L237.971 265.203C240.766 260.521 240.077 254.729 239.383 252.418L216.109 190L151 272.638Z" fill="#F1A687"/>
<path d="M228.834 77.4785H149.393C139.922 77.4785 132.227 85.1168 132.227 94.5178V256.293C132.227 265.694 139.922 273.332 149.393 273.332H228.834C238.305 273.332 246 265.694 246 256.293V94.5178C246 85.1168 238.305 77.4785 228.834 77.4785Z" fill="#98C0FF"/>
<path d="M212.342 76.6446C211.29 76.2486 210.71 76.6446 210.42 77.3645H167.77C167.48 76.6446 166.899 76.2486 165.848 76.6446L167.516 83.2682C167.915 85.0681 169.547 86.436 171.505 86.436H206.721C208.679 86.436 210.311 85.0681 210.71 83.2682L212.378 76.6446H212.342Z" fill="#1F2A5B"/>
<path opacity="0.7" d="M175.051 272.555L177.454 224.327C177.509 223.222 179.053 223.011 179.402 224.062L195.554 272.657C195.771 273.312 195.275 273.986 194.585 273.972L176.03 273.604C175.466 273.593 175.023 273.118 175.051 272.555Z" fill="#548DFE"/>
<path d="M161 313.353V323H225.236V309.67L233 281.41C222.516 260.826 201.153 219.081 199.574 216.779C197.6 213.9 193.652 207.882 185.098 210.76C178.254 213.063 177.957 221.74 178.664 225.791L190.607 266.357L161 313.353Z" fill="#FFD2B9"/>
<path d="M198.674 225.669C195.472 227.033 190.739 229.094 188.175 230.347C187.42 230.715 185.883 230.224 185.555 229.451L182.356 221.902C182.276 221.714 182.254 221.506 182.303 221.307C182.819 219.175 184.158 216.562 187.584 215.22C191.077 213.852 194.119 214.869 195.492 216.244C195.567 216.319 195.625 216.409 195.669 216.507L199.194 224.337C199.424 224.849 199.19 225.449 198.674 225.669Z" fill="#FFF1ED"/>
<rect x="150" y="318" width="85" height="62" fill="#3B455A"/>
<path d="M225.849 335.652C225.214 338.055 222.751 339.485 220.348 338.849C217.945 338.214 216.515 335.751 217.151 333.348C217.786 330.945 220.249 329.515 222.652 330.151C225.055 330.786 226.485 333.249 225.849 335.652Z" fill="white"/>
<rect x="60.3555" y="112.747" width="133.942" height="55.5718" rx="10" fill="white"/>
<circle cx="85.472" cy="139.734" r="14.222" fill="#FF5F5F"/>
<path d="M92.5658 138.361H92.0848L92.8063 136.341C92.9987 135.764 92.7101 135.139 92.1329 134.946C91.5557 134.754 90.9304 135.042 90.738 135.62L88.5736 141.632L86.5053 136.437C86.3129 136.004 85.9281 135.716 85.4952 135.716C85.0623 135.716 84.6294 136.004 84.4851 136.389L82.4169 141.584L80.2524 135.572C80.06 134.994 79.4347 134.706 78.8575 134.898C78.2803 135.091 77.9917 135.716 78.1841 136.293L78.9056 138.313H78.4246C77.7994 138.313 77.3184 138.794 77.3184 139.419C77.3184 140.045 77.7994 140.526 78.4246 140.526H79.6752L81.3106 145.047C81.4549 145.48 81.8878 145.769 82.3207 145.769C82.7536 145.769 83.1865 145.48 83.3307 145.095L85.4471 139.756L87.5635 145.095C87.7078 145.528 88.1407 145.769 88.5736 145.769C89.0064 145.769 89.4393 145.48 89.5836 145.047L91.219 140.526H92.5177C93.143 140.526 93.624 140.045 93.624 139.419C93.6721 138.842 93.1911 138.361 92.5658 138.361Z" fill="white"/>
<path d="M122.881 166.363H111.654C110.788 166.363 110.332 167.389 110.911 168.032L122.137 180.502C122.751 181.184 123.881 180.75 123.881 179.833V167.363C123.881 166.811 123.433 166.363 122.881 166.363Z" fill="white"/>
<rect x="107.602" y="130.449" width="71.0734" height="6.24294" rx="3.12147" fill="#D4DADF"/>
<rect x="107.602" y="143.895" width="46.1017" height="6.24294" rx="3.12147" fill="#D4DADF"/>
</svg>
